{"title":"The.Collection.2012.R5.DVDRip.XViD.AC3-TiCKLE.TiME","uid":8061839,"size":1426947951,"categoryP":"video","categoryS":"movies","magnet":"?xt=urn:btih:21eb9df130580a9cbd6a343c630d96cf16723375&amp;dn=The.Collection.2012.R5.DVDRip.XViD.AC3-TiCKLE.TiME&amp;tr=udp%3A%2F%2Ftracker.openbittorrent.com%3A80&amp;tr=udp%3A%2F%2Fopen.demonii.com%3A1337&amp;tr=udp%3A%2F%2Ftracker.coppersurfer.tk%3A6969&amp;tr=udp%3A%2F%2Fexodus.desync.com%3A6969","seeders":0,"leechers":0,"uploader":"xxxlavalxxx","files":3,"time":1359105454,"description":" &lt;a href=&quot;http://www.shotpix.com/images/87409419542830084697.jpg&quot; rel=&quot;nofollow&quot; target=&quot;_NEW&quot;&gt;http://www.shotpix.com/images/87409419542830084697.jpg&lt;/a&gt;\n\n\n\n &lt;a href=&quot;\nhttp://www.imdb.com/title/tt1748227/&quot; rel=&quot;nofollow&quot; target=&quot;_NEW&quot;&gt;\nhttp://www.imdb.com/title/tt1748227/&lt;/a&gt;\n\n\n\nPlot:A man who escapes from the vicious grips of the serial killer known as &quot;The Collector&quot; is blackmailed to rescue an innocent girl from the killer's booby-trapped warehouse.\n \n\n\nDirector: \nMarcus Dunstan\n\n Writers: \nPatrick Melton, Marcus Dunstan\n\nStars:\n Josh Stewart, Emma Fitzpatrick and Christopher McDonald\n\nGenres:\n Action | Horror | Thriller \n\nCountry:\nUSA \n\nLanguage:\nEnglish\n\n\nVideo: 720x304 @ 2000Kbps 2pass\nAudio: English AC3 5.1 @ 384Kbps\nSubtitles : None\nSample: Yes, included\n\n\nSources: R5 DVDR - Thx\n\n\nFormat                                   : AVI\nFormat/Info                              : Audio Video Interleave\nFile size                                : 1.31 GiB\nDuration                                 : 1h 18mn\nOverall bit rate                         : 2 396 Kbps\nWriting library                          : VirtualDub build 32842/release\n\nVideo\nID                                       : 0\nFormat                                   : MPEG-4 Visual\nFormat profile                           : Advanced Simple@L5\nFormat settings, BVOP                    : 2\nFormat settings, QPel                    : No\nFormat settings, GMC                     : No warppoints\nFormat settings, Matrix                  : Default (H.263)\nMuxing mode                              : Packed bitstream\nCodec ID                                 : XVID\nCodec ID/Hint                            : XviD\nDuration                                 : 1h 18mn\nBit rate                                 : 2 003 Kbps\nWidth                                    : 720 pixels\nHeight                                   : 304 pixels\nDisplay aspect ratio                     : 2.35:1\nFrame rate                               : 25.000 fps\nColor space                              : YUV\nChroma subsampling                       : 4:2:0\nBit depth                                : 8 bits\nScan type                                : Progressive\nCompression mode                         : Lossy\nBits/(Pixel*Frame)                       : 0.366\nStream size                              : 1.10 GiB (84%)\nWriting library                          : XviD 64\n\nAudio\nID                                       : 1\nFormat                                   : AC-3\nFormat/Info                              : Audio Coding 3\nMode extension                           : CM (complete main)\nFormat settings, Endianness              : Big\nCodec ID                                 : 2000\nDuration                                 : 1h 18mn\nBit rate mode                            : Constant\nBit rate                                 : 384 Kbps\nChannel(s)                               : 6 channels\nChannel positions                        : Front: L C R, Side: L R, LFE\nSampling rate                            : 48.0 KHz\nBit depth                                : 16 bits\nCompression mode                         : Lossy\nDelay relative to video                  : 1s 600ms\nStream size                              : 215 MiB (16%)\nAlignment                                : Split accross interleaves\nInterleave, duration                     : 40 ms (1.00 video frame)\nInterleave, preload duration             : 500 ms\n\n\n\n &lt;a href=&quot;\nhttp://www.shotpix.com/images/53820685041156856813.png&quot; rel=&quot;nofollow&quot; target=&quot;_NEW&quot;&gt;\nhttp://www.shotpix.com/images/53820685041156856813.png&lt;/a&gt; &lt;a href=&quot;\nhttp://www.shotpix.com/images/44595599295302169286.png&quot; rel=&quot;nofollow&quot; target=&quot;_NEW&quot;&gt;\nhttp://www.shotpix.com/images/44595599295302169286.png&lt;/a&gt; &lt;a href=&quot;\nhttp://www.shotpix.com/images/07342369728534419534.png&quot; rel=&quot;nofollow&quot; target=&quot;_NEW&quot;&gt;\nhttp://www.shotpix.com/images/07342369728534419534.png&lt;/a&gt; &lt;a href=&quot;\nhttp://www.shotpix.com/images/11359095158788010971.png&quot; rel=&quot;nofollow&quot; target=&quot;_NEW&quot;&gt;\nhttp://www.shotpix.com/images/11359095158788010971.png&lt;/a&gt;\n","torrent":{"xt":"urn:btih:21eb9df130580a9cbd6a343c630d96cf16723375","amp;dn":"The.Collection.2012.R5.DVDRip.XViD.AC3-TiCKLE.TiME","amp;tr":["udp%3A%2F%2Ftracker.openbittorrent.com%3A80","udp%3A%2F%2Fopen.demonii.com%3A1337","udp%3A%2F%2Ftracker.coppersurfer.tk%3A6969","udp%3A%2F%2Fexodus.desync.com%3A6969"],"infoHash":"21eb9df130580a9cbd6a343c630d96cf16723375","infoHashBuffer":{"type":"Buffer","data":[33,235,157,241,48,88,10,156,189,106,52,60,99,13,150,207,22,114,51,117]},"announce":[],"urlList":[]}}